PathFileType	4	(X/Y/Z)	Patient4_TMGait_0pt3_02_left_24.trc.trc
DataRate	CameraRate	NumFrames	NumMarkers	Units	OrigDataRate	OrigDataStartFrame	OrigNumFrames
50.359712230216	50.359712230216	4	33	mm	50.359712230216	1	       141
Frame#	Time	Sacral			L.Shoulder			Chest			R.Shoulder			Neck			R.ASIS			L.ASIS			R.Thigh.Superior			R.Thigh.Lateral			R.Thigh.Inferior			R.Patella			L.Thigh.Superior			L.Thigh.Lateral			L.Thigh.Inferior			L.Patella			L.Shank.Superior			L.Shank.Lateral			L.Shank.Inferior			R.Shank.Superior			R.Shank.Lateral			R.Shank.Inferior			R.Heel			R.Midfoot.Superior			R.Midfoot.Lateral			R.Toe			L.Heel			L.Midfoot.Lateral			L.Midfoot.Superior			L.Toe			L.Elbow			L.Wrist			R.Elbow			R.Wrist			
		X1	Y1	Z1	X2	Y2	Z2	X3	Y3	Z3	X4	Y4	Z4	X5	Y5	Z5	X6	Y6	Z6	X7	Y7	Z7	X8	Y8	Z8	X9	Y9	Z9	X10	Y10	Z10	X11	Y11	Z11	X12	Y12	Z12	X13	Y13	Z13	X14	Y14	Z14	X15	Y15	Z15	X16	Y16	Z16	X17	Y17	Z17	X18	Y18	Z18	X19	Y19	Z19	X20	Y20	Z20	X21	Y21	Z21	X22	Y22	Z22	X23	Y23	Z23	X24	Y24	Z24	X25	Y25	Z25	X26	Y26	Z26	X27	Y27	Z27	X28	Y28	Z28	X29	Y29	Z29	X30	Y30	Z30	X31	Y31	Z31	X32	Y32	Z32	X33	Y33	Z33	

1	47.030000000000	768.344863347997	995.793425116505	528.830060990378	964.651832891225	1423.553021309857	354.915207386708	1052.030518815736	1352.502296619778	523.674277736136	960.274106315423	1427.835628803204	691.500033288032	940.432094334955	1487.859950246079	512.644159184181	997.437960218556	934.326048148188	653.254628691151	986.995306767833	952.489921034280	378.517789668268	1051.720789020121	740.159400396976	618.752467396619	976.356963529085	623.776959086366	671.187109243973	1059.720848920083	578.465204547993	592.089820799376	1065.849211960765	486.281077041515	596.716627379889	1047.033561018818	747.975643084787	403.320206759211	979.148794156528	627.010892719449	326.797034853010	1070.016615552683	548.958849174689	390.022642928640	1065.816565896063	459.734144308974	380.588073047217	992.135571900684	404.324308173274	369.123527497023	846.667943560640	377.113741944990	321.424124685826	824.980751706128	245.791830512565	368.396589726477	1028.013074122866	397.234039117066	598.699324566424	947.187500223843	297.354536287727	656.183253739462	981.950451766330	202.401296686533	590.192190986591	835.828341038262	43.048856533491	554.493190072674	1007.808809916448	96.644622579723	593.203766182378	918.257851590174	37.021131475287	630.152228818415	1126.789982665492	43.525120107983	621.330542951212	629.645127993976	186.784766735044	407.586983939490	684.099982426479	148.671926480232	321.400188117704	790.664179997840	153.287641190040	339.970217269269	865.537126971712	43.914681021328	297.751931476120	1006.580537432673	1075.640974901869	228.424090537650	1223.611853159298	925.784437172786	218.407549489497	884.465264332227	1082.765097378679	803.494075537642	924.765820495784	824.463311551943	828.859603597729	
2	47.049857142857	766.426634449319	994.123926762899	533.028197385019	959.850774393967	1422.413236761080	356.875918480218	1050.112900170292	1351.046798621894	523.871021039763	961.411516575374	1425.694534915266	693.468141524110	938.621440892832	1486.478352053992	515.064491163163	997.503158204591	933.082688985551	654.158414498661	983.361481088924	951.844141566230	379.536913804911	1051.816720271179	738.881688286121	618.265293725404	977.395357917459	622.041748056548	670.986306642877	1059.901896460167	577.182677924436	590.739938093676	1065.965342667813	484.363373122582	594.955459953119	1048.581559287085	751.494328438951	405.315522302967	984.953252336644	628.680984427805	329.111511143483	1078.124810354687	553.567866745200	392.678781539230	1076.624562613022	463.990270281321	383.137866348974	1003.788238833619	406.921875112151	371.712801751030	858.276630128732	377.642137668786	324.847389595585	838.993348352089	245.804198001296	371.394024797123	1026.869746274897	395.496817952020	597.394864766069	945.218972679124	296.604507535798	655.356416308916	977.922800366340	201.356959897984	589.246206802675	829.773087042405	43.112237671332	554.462379429256	1001.649696913226	96.333258764636	592.585986636085	912.236445811414	37.075701974837	630.115874197262	1120.770843228905	43.369330976264	621.367086235180	644.736060135791	183.217477606485	411.720764970573	699.216980222306	146.776512210249	324.832363934875	805.783846098960	153.074132723050	342.772499644551	882.311567709536	45.364047456291	299.009552308129	991.272098489820	1072.511189577161	232.681117028887	1192.263575214966	906.480321478449	223.129858798974	898.320989416829	1078.583526511382	806.735365136787	951.624127631779	823.453320245067	830.946990307729	
3	47.069714285714	764.507262068346	992.423780962593	537.321678396376	954.905798650401	1421.209073177760	358.798696088453	1048.135010382700	1349.582431050501	523.979664287007	962.570402696375	1423.584836141182	695.367815559743	936.751140402816	1485.080866497027	517.414764028929	997.547934596021	931.783810504648	654.979011726739	979.566537587187	951.176184088701	380.513042661494	1051.833903853926	737.556333230444	617.676860842703	978.400004293281	620.277034015635	670.727703109760	1059.982103195799	575.862285163975	589.294365376816	1065.972354357205	482.411955415341	593.099943302226	1049.958378843307	755.044567288257	407.324504757818	990.656399698193	630.424936575172	331.441285389762	1086.034086694602	558.278389402346	395.384191854420	1087.307128516884	468.428753290751	385.699349926751	1015.542295663927	409.600729269184	374.244997585670	870.158602273550	377.692033935339	328.189364764017	853.825304146139	245.293958757089	374.248790034292	1025.609479032321	393.728629662148	596.018872937669	943.159223071855	295.833582132121	654.501624400073	973.763779553306	200.288601998509	588.254484222284	823.563809651773	43.183226445647	554.436105760463	995.350223939009	96.061446980340	592.015546364678	906.054160976738	37.133786093334	630.075767000757	1114.592652795990	43.182601517243	621.402388758582	661.024421278933	178.382576201107	415.670969220990	715.607162187159	143.825280800282	328.075183361968	822.103798103303	152.231502747441	345.394456601484	900.655259728240	46.539979167071	300.082285796778	975.566452877457	1069.337617898214	237.112298594467	1159.518261772661	887.219494122985	228.055161752263	912.553284856942	1074.502511583603	809.814623729717	979.650217103184	823.064422709072	832.595568186847	
4	47.089571428571	762.637040229799	990.783411870487	541.600686830280	949.919776202533	1419.986110403585	360.592365619490	1046.139941485037	1348.183331606733	523.941937100389	963.735953853210	1421.624798083473	697.088688948963	934.863355277579	1483.737929412294	519.573338610244	997.551505677921	930.475498972191	655.650953054872	975.657655571313	950.524364334666	381.396928669916	1051.699820214484	736.219349423556	616.972947789573	979.258008760715	618.552309188184	670.408995863315	1059.846463530445	574.541083298122	587.777871823357	1065.740824435030	480.495187720258	591.192343419196	1051.006581434323	758.524756159702	409.274100061584	995.957197605235	632.229966280399	333.688830496361	1093.324414409925	562.973283978181	398.040461621343	1097.387019104007	472.998423577863	388.167678475950	1027.010025622157	412.332845367490	376.591754887726	882.067235577822	377.050137682972	331.256527717056	869.396803675658	244.092751831047	376.780766880179	1024.159794988690	391.995834859045	594.607316970671	940.972607204026	295.067467135498	653.645938386844	969.511288680598	199.234566491864	587.243912249138	817.312783482621	43.259565604440	554.414512099049	989.024819915837	95.835376546993	591.505482478997	899.822285397110	37.192365900673	630.031031228964	1108.368099378400	42.962942464578	621.434224928488	678.611880532502	171.922387433083	419.173581289764	733.419555108431	139.492613948209	330.909016600718	839.706787452819	150.567635952217	347.660764682406	920.750570788271	47.371777028430	300.889965817646	959.757919465050	1066.268816385242	241.634613376471	1125.823053924053	868.779378426722	233.121945930087	926.898826291768	1070.759196978062	812.540872895396	1008.478505572412	823.760213561437	833.505524054387	
